<svg width="42" height="42" viewBox="0 0 42 42" fill="none" xmlns="http://www.w3.org/2000/svg">
<g clip-path="url(#clip0_7_614)">
<path d="M21.9121 40.2572C32.0404 40.2572 40.2509 32.0458 40.2509 21.9157C40.2509 11.7866 32.0404 3.57422 21.9112 3.57422C11.7848 3.57422 3.57422 11.7866 3.57422 21.9157C3.57422 32.0458 11.7848 40.2572 21.9121 40.2572Z" fill="black" stroke="#050001" stroke-width="1.78723" stroke-miterlimit="10"/>
<path d="M19.2324 37.5765C29.3607 37.5765 37.5713 29.3651 37.5713 19.235C37.5713 9.1059 29.3607 0.893555 19.2316 0.893555C9.10509 0.893555 0.894531 9.1059 0.894531 19.235C0.894531 29.3651 9.10508 37.5765 19.2324 37.5765Z" fill="#C7FDD0" stroke="#050001" stroke-width="1.78723" stroke-miterlimit="10"/>
<path d="M15.053 16.1442H16.9448C17.0043 16.1442 17.0625 16.1268 17.1123 16.0941C17.162 16.0614 17.201 16.0148 17.2245 15.9601C17.2394 15.9238 17.247 15.8849 17.2468 15.8457V12.7448C17.2468 10.517 18.984 8.33215 23.6603 8.50909H23.8488C23.9293 8.50909 24.0052 8.54037 24.0624 8.59666C24.0902 8.62432 24.1122 8.65719 24.1272 8.69338C24.1423 8.72957 24.15 8.76837 24.15 8.80756V10.1962C24.1503 10.2355 24.1427 10.2744 24.1277 10.3106C24.1126 10.3468 24.0904 10.3797 24.0624 10.4071C24.0344 10.4352 24.0011 10.4574 23.9644 10.4724C23.9278 10.4874 23.8885 10.495 23.8488 10.4947H22.2412C21.9285 10.4947 19.8142 10.6502 19.8142 13.298V15.8582C19.8134 15.9178 19.8308 15.9762 19.864 16.0256C19.8972 16.0751 19.9446 16.1133 20 16.1352C20.0367 16.1499 20.0758 16.1572 20.1153 16.1567H23.0312C23.1116 16.1567 23.1876 16.1879 23.2439 16.2442C23.2718 16.2718 23.294 16.3046 23.3092 16.3408C23.3244 16.377 23.3323 16.4159 23.3323 16.4551V17.8009C23.3323 17.8402 23.3244 17.879 23.3092 17.9152C23.294 17.9514 23.2718 17.9843 23.2439 18.0118C23.1872 18.0678 23.1108 18.0993 23.0312 18.0994H20.1153C20.0559 18.0992 19.9977 18.1166 19.9481 18.1494C19.8985 18.1821 19.8597 18.2288 19.8365 18.2835C19.8215 18.3197 19.8139 18.3586 19.8142 18.3979V31.0157C19.8139 31.055 19.8058 31.0939 19.7905 31.1301C19.7752 31.1663 19.7528 31.1991 19.7248 31.2266C19.6681 31.2826 19.5917 31.314 19.5121 31.3142H17.6623C17.5821 31.3145 17.505 31.283 17.4479 31.2266C17.42 31.199 17.3978 31.1662 17.3826 31.13C17.3674 31.0938 17.3596 31.055 17.3594 31.0157V18.3952C17.3593 18.3559 17.3515 18.3171 17.3363 18.2809C17.3211 18.2447 17.2989 18.2118 17.2709 18.1843C17.2143 18.1283 17.1379 18.0968 17.0582 18.0967H15.0583C14.9787 18.0966 14.9023 18.0651 14.8456 18.0091C14.8178 17.9815 14.7958 17.9486 14.7808 17.9124C14.7657 17.8763 14.758 17.8374 14.7581 17.7982V16.4551C14.7564 16.4152 14.7628 16.3753 14.7768 16.3379C14.7908 16.3005 14.8122 16.2662 14.8397 16.2372C14.8672 16.2082 14.9003 16.185 14.9369 16.1691C14.9735 16.1531 15.013 16.1446 15.053 16.1442Z" fill="#050001" stroke="#050001" stroke-width="1.78723" stroke-miterlimit="10"/>
</g>
<defs>
<clipPath id="clip0_7_614">
<rect width="42" height="42" fill="white"/>
</clipPath>
</defs>
</svg>
