<svg width="42" height="42" viewBox="0 0 42 42" fill="none" xmlns="http://www.w3.org/2000/svg">
<g clip-path="url(#clip0_7_618)">
<path d="M22.1364 40.7049C32.388 40.7049 40.6978 32.3934 40.6978 22.14C40.6978 11.8866 32.3871 3.57422 22.1364 3.57422C11.8849 3.57422 3.57422 11.8866 3.57422 22.14C3.57422 32.3934 11.8849 40.7049 22.1364 40.7049Z" fill="black" stroke="#050001" stroke-width="1.78723" stroke-miterlimit="10"/>
<path d="M19.4567 38.0242C29.7083 38.0242 38.0181 29.7127 38.0181 19.4593C38.0181 9.20598 29.7074 0.893555 19.4567 0.893555C9.20517 0.893555 0.894531 9.20598 0.894531 19.4593C0.894531 29.7127 9.20517 38.0242 19.4567 38.0242Z" fill="#C7FDD0" stroke="#050001" stroke-width="1.78723" stroke-miterlimit="10"/>
<path d="M19.4547 24.604C22.0479 24.604 24.1506 22.4004 24.1506 19.6829C24.1506 16.9654 22.0479 14.7617 19.4547 14.7617C16.8605 14.7617 14.7578 16.9654 14.7578 19.6829C14.7578 22.4004 16.8605 24.604 19.4547 24.604Z" stroke="#050001" stroke-width="1.78723" stroke-miterlimit="10"/>
<path d="M25.2688 14.3149C25.4468 14.3149 25.6174 14.2442 25.7433 14.1183C25.8692 13.9924 25.9399 13.8218 25.9399 13.6438C25.9399 13.4658 25.8692 13.2951 25.7433 13.1692C25.6174 13.0434 25.4468 12.9727 25.2688 12.9727C25.0908 12.9727 24.9201 13.0434 24.7942 13.1692C24.6684 13.2951 24.5977 13.4658 24.5977 13.6438C24.5977 13.8218 24.6684 13.9924 24.7942 14.1183C24.9201 14.2442 25.0908 14.3149 25.2688 14.3149Z" fill="#050001" stroke="#050001" stroke-width="1.78723" stroke-miterlimit="10"/>
<path d="M23.5122 9.3938H15.4017C11.8362 9.3938 8.94531 12.223 8.94531 15.7135V23.6532C8.94531 27.1428 11.8362 29.972 15.4008 29.972H23.5122C27.0777 29.972 29.9677 27.1428 29.9677 23.6532V15.7135C29.9677 12.223 27.0777 9.3938 23.5122 9.3938Z" stroke="#050001" stroke-width="1.78723" stroke-miterlimit="10"/>
</g>
<defs>
<clipPath id="clip0_7_618">
<rect width="42" height="42" fill="white"/>
</clipPath>
</defs>
</svg>
