<svg width="42" height="42" viewBox="0 0 42 42" fill="none" xmlns="http://www.w3.org/2000/svg">
<g clip-path="url(#clip0_7_632)">
<path d="M22.1364 40.7049C32.3871 40.7049 40.6978 32.3934 40.6978 22.14C40.6978 11.8866 32.3871 3.57422 22.1364 3.57422C11.8849 3.57422 3.57422 11.8866 3.57422 22.14C3.57422 32.3934 11.8849 40.7049 22.1364 40.7049Z" fill="black" stroke="#050001" stroke-width="1.78723" stroke-miterlimit="10"/>
<path d="M19.4567 38.0242C29.7074 38.0242 38.0181 29.7127 38.0181 19.4593C38.0181 9.20598 29.7074 0.893555 19.4567 0.893555C9.20517 0.893555 0.894531 9.20598 0.894531 19.4593C0.894531 29.7127 9.20517 38.0242 19.4567 38.0242Z" fill="#C7FDD0" stroke="#050001" stroke-width="1.78723" stroke-miterlimit="10"/>
<mask id="mask0_7_632" style="mask-type:luminance" maskUnits="userSpaceOnUse" x="8" y="7" width="24" height="23">
<path d="M8.94531 7.15723H31.309V29.5254H8.94531V7.15723Z" fill="white"/>
</mask>
<g mask="url(#mask0_7_632)">
<path d="M12.106 13.5028C12.9458 13.5011 13.7506 13.166 14.3433 12.5711C14.936 11.9762 15.2682 11.1702 15.2668 10.3305C15.2676 9.91457 15.1865 9.50258 15.0281 9.11803C14.8697 8.73348 14.6371 8.3839 14.3436 8.08923C14.0501 7.79457 13.7014 7.5606 13.3175 7.40069C12.9336 7.24078 12.5219 7.15805 12.106 7.15723C11.2663 7.15888 10.4615 7.49402 9.8688 8.08892C9.27607 8.68382 8.9439 9.48979 8.94532 10.3296C8.94438 10.7455 9.0254 11.1576 9.18374 11.5423C9.34208 11.9269 9.57465 12.2766 9.86817 12.5714C10.1617 12.8661 10.5104 13.1002 10.8944 13.2601C11.2783 13.4201 11.6901 13.5029 12.106 13.5037V13.5028ZM14.013 14.3893H10.3045C10.2003 14.3895 10.0972 14.4103 10.001 14.4504C9.90479 14.4905 9.81744 14.5491 9.74392 14.623C9.6704 14.6968 9.61215 14.7844 9.57249 14.8808C9.53283 14.9771 9.51253 15.0804 9.51277 15.1846V28.7318C9.51277 29.1706 9.86664 29.5271 10.3045 29.5271H14.013C14.4509 29.5271 14.8048 29.1706 14.8048 28.7318V15.1846C14.8052 14.9743 14.7222 14.7724 14.5739 14.6233C14.4256 14.4741 14.2233 14.39 14.013 14.3893ZM31.3099 20.8555V28.73C31.3096 28.9403 31.2263 29.1419 31.0779 29.2909C30.9296 29.4399 30.7284 29.5242 30.5181 29.5254H26.8069C26.7026 29.5256 26.5992 29.5052 26.5028 29.4652C26.4064 29.4253 26.3189 29.3667 26.2453 29.2927C26.1717 29.2188 26.1134 29.131 26.0739 29.0344C26.0345 28.9378 26.0145 28.8344 26.0152 28.73V20.8555C26.0152 20.8555 26.0152 18.919 24.1314 18.9226C21.6517 18.9226 22.0011 21.271 21.9421 21.8054V28.7309C21.9414 28.9407 21.8579 29.1417 21.7098 29.2903C21.5618 29.4389 21.361 29.5231 21.1512 29.5245H17.44C17.2833 29.5248 17.1301 29.4782 17 29.3908C16.8699 29.3034 16.7689 29.1791 16.71 29.0339C16.6703 28.9375 16.6499 28.8343 16.6501 28.73V15.1828C16.6498 15.026 16.6959 14.8726 16.7825 14.7419C16.8692 14.6112 16.9926 14.509 17.1371 14.4482C17.2331 14.4082 17.336 14.3875 17.44 14.3875H21.1512C21.3615 14.3887 21.5627 14.4729 21.711 14.6219C21.8594 14.7709 21.9427 14.9726 21.943 15.1828V15.4938C22.0457 15.4938 22.2182 15.4134 22.497 15.1542C23.06 14.6162 26.1814 12.9648 29.0919 15.1542C30.418 16.1461 31.3099 18.3623 31.3099 20.8555Z" fill="#050001"/>
</g>
</g>
<defs>
<clipPath id="clip0_7_632">
<rect width="42" height="42" fill="white"/>
</clipPath>
</defs>
</svg>
