<svg width="42" height="42" viewBox="0 0 42 42" fill="none" xmlns="http://www.w3.org/2000/svg">
<g clip-path="url(#clip0_7_624)">
<path d="M22.1364 40.7049C32.3871 40.7049 40.6978 32.3934 40.6978 22.14C40.6978 11.8866 32.3871 3.57422 22.1364 3.57422C11.8849 3.57422 3.57422 11.8866 3.57422 22.14C3.57422 32.3934 11.8849 40.7049 22.1364 40.7049Z" fill="black" stroke="#050001" stroke-width="1.78723" stroke-miterlimit="10"/>
<path d="M19.4567 38.0242C29.7074 38.0242 38.0181 29.7127 38.0181 19.4593C38.0181 9.20598 29.7074 0.893555 19.4567 0.893555C9.20517 0.893555 0.894531 9.20598 0.894531 19.4593C0.894531 29.7127 9.20517 38.0242 19.4567 38.0242Z" fill="#C7FDD0" stroke="#050001" stroke-width="1.78723" stroke-miterlimit="10"/>
<mask id="mask0_7_624" style="mask-type:luminance" maskUnits="userSpaceOnUse" x="8" y="10" width="24" height="20">
<path d="M8.05078 10.7363H31.7567V29.9732H8.05078V10.7363Z" fill="white"/>
</mask>
<g mask="url(#mask0_7_624)">
<path d="M10.3173 17.2134C10.3173 17.2134 8.81517 15.7729 9.4827 13.168C10.1493 10.5631 11.034 11.9464 11.4272 12.4477C11.8204 12.9481 14.0964 15.3296 16.8184 15.8863C19.5412 16.4431 19.3187 16.5637 19.3464 15.4958C19.3733 14.428 19.8951 11.8856 22.9674 10.975C26.0396 10.0653 27.498 12.0706 28.0762 12.0706C28.6535 12.0706 29.9724 11.1663 30.4657 11.1126C30.959 11.059 31.1154 11.2646 31.0358 11.6613C30.9572 12.059 30.228 13.3914 30.228 13.3914C30.228 13.3914 31.3272 13.0339 31.5792 12.9937C31.8312 12.9544 31.95 13.6032 30.8777 14.7139C29.8053 15.8247 29.6463 15.5584 29.4979 16.5744C29.3496 17.5905 29.7946 22.5393 25.6152 25.8922C21.4357 29.2459 16.2054 31.3486 10.7686 28.943C5.33274 26.5374 9.54615 27.0217 10.4943 27.0047C11.4433 26.9869 12.6863 26.7867 13.2323 26.5132C13.7792 26.2398 14.7121 25.9663 13.9222 25.6759C13.1322 25.3855 11.4915 24.1675 11.1395 23.2971C10.7874 22.4276 11.0224 22.2757 11.1725 22.0764C11.3218 21.8772 10.4013 21.274 9.99831 20.6717C9.5944 20.0703 8.51849 17.6003 9.4121 17.4046C10.3048 17.208 10.5202 17.4529 10.3173 17.2143V17.2134Z" fill="#050001"/>
</g>
</g>
<defs>
<clipPath id="clip0_7_624">
<rect width="42" height="42" fill="white"/>
</clipPath>
</defs>
</svg>
